<svg width="400" height="265" viewBox="0 0 400 265" fill="none" xmlns="http://www.w3.org/2000/svg">
<g clip-path="url(#clip0_77_484)">
<path d="M143.48 152.51C157.188 128.471 183.336 110.013 211.017 111.791C190.599 133.926 178.693 162.546 177.405 192.589C176.951 204.177 177.655 217.113 169.937 225.79C165.135 231.189 157.794 233.804 150.577 234.352C143.36 234.901 136.144 233.601 129.022 232.306L127.295 232.835C126.637 205.191 129.772 176.549 143.48 152.51Z" fill="#FF1694"/>
<path d="M211.058 112.37C190.589 122.193 173.135 138.599 162.421 158.607C160.104 162.933 158.132 167.522 157.272 172.374C156.411 177.229 157.012 181.849 158.676 186.46C160.196 190.675 162.241 194.811 162.707 199.321C163.199 204.075 161.444 208.52 158.286 212.047C154.421 216.363 149.232 219.038 144.066 221.478C138.33 224.187 132.329 226.91 128.266 231.966C127.774 232.578 126.849 231.781 127.34 231.169C134.409 222.373 146.508 220.72 154.899 213.634C158.814 210.328 161.753 205.825 161.568 200.549C161.405 195.936 159.3 191.669 157.724 187.415C156.068 182.947 155.243 178.456 155.837 173.693C156.444 168.821 158.24 164.145 160.435 159.779C165.386 149.934 172.162 140.894 179.924 133.08C188.844 124.098 199.24 116.704 210.662 111.217C211.369 110.878 211.761 112.033 211.058 112.37Z" fill="white"/>
<path d="M165.559 151.921C162.421 149.633 160.201 146.309 159.295 142.54C158.389 138.771 158.856 134.805 160.614 131.348C160.972 130.65 162.077 131.171 161.718 131.87C160.076 135.086 159.641 138.782 160.492 142.289C161.343 145.797 163.423 148.886 166.358 150.998C166.995 151.458 166.193 152.378 165.559 151.921Z" fill="white"/>
<path d="M157.622 184.424C165.485 183.279 172.626 179.221 177.622 173.06C178.116 172.449 179.041 173.246 178.547 173.856C173.337 180.258 165.897 184.465 157.712 185.639C156.932 185.751 156.846 184.535 157.622 184.424Z" fill="white"/>
<path d="M189.448 125.598C190.478 126.735 191.774 127.6 193.221 128.114C194.668 128.629 196.221 128.777 197.74 128.545C198.518 128.424 198.603 129.64 197.829 129.76C196.15 130.008 194.436 129.843 192.835 129.278C191.235 128.713 189.798 127.767 188.65 126.521C188.532 126.412 188.459 126.263 188.447 126.103C188.436 125.944 188.485 125.786 188.586 125.661C188.693 125.539 188.843 125.465 189.004 125.453C189.166 125.441 189.325 125.493 189.448 125.598Z" fill="white"/>
<path d="M266.092 187.625C265.608 187.715 265.124 187.804 264.636 187.903C258.136 189.139 251.748 190.899 245.535 193.167C245.051 193.334 244.564 193.512 244.087 193.693C229.175 199.314 215.44 207.647 203.58 218.267C198.864 222.497 194.478 227.079 190.46 231.972C184.911 238.731 179.434 246.499 172.183 250.906C171.431 251.374 170.652 251.795 169.848 252.168L128.076 234.895C128.001 234.808 127.921 234.731 127.845 234.644L126.146 234.03C126.336 233.763 126.538 233.491 126.727 233.224C126.837 233.069 126.955 232.917 127.065 232.762C127.141 232.66 127.217 232.558 127.279 232.461C127.305 232.427 127.33 232.393 127.351 232.368C127.414 232.272 127.482 232.189 127.541 232.101C128.668 230.574 129.807 229.052 130.96 227.535C130.964 227.526 130.964 227.526 130.977 227.52C139.787 215.986 149.64 205.083 160.84 196.017C161.177 195.745 161.518 195.462 161.874 195.198C166.945 191.139 172.34 187.501 178.006 184.319C181.114 182.586 184.308 181.012 187.576 179.602C196.026 175.973 204.996 173.693 214.158 172.843C232.421 171.153 251.023 175.303 265.03 186.741C265.389 187.034 265.738 187.323 266.092 187.625Z" fill="#FF1694"/>
<path d="M265.778 188.115C243.502 183.673 219.658 186.296 199.019 195.841C194.557 197.904 190.211 200.385 186.594 203.743C182.975 207.102 180.664 211.152 179.207 215.832C177.876 220.11 177.011 224.639 174.659 228.52C172.18 232.611 168.095 235.107 163.443 236.028C157.751 237.155 151.992 236.176 146.393 235.023C140.177 233.743 133.741 232.315 127.444 233.914C126.681 234.107 126.424 232.916 127.186 232.722C138.142 229.942 148.801 235.883 159.78 235.262C164.903 234.972 169.969 233.141 173.007 228.817C175.664 225.036 176.56 220.366 177.871 216.023C179.247 211.462 181.301 207.38 184.651 203.934C188.079 200.408 192.337 197.753 196.726 195.585C206.626 190.695 217.495 187.545 228.412 185.964C240.959 184.147 253.725 184.482 266.159 186.957C266.928 187.11 266.543 188.267 265.778 188.115Z" fill="white"/>
<path d="M205.564 192.386C204.44 188.676 204.675 184.689 206.228 181.136C207.781 177.583 210.55 174.697 214.04 172.991C214.748 172.648 215.315 173.728 214.607 174.071C211.353 175.654 208.774 178.343 207.335 181.654C205.896 184.965 205.692 188.68 206.759 192.129C206.99 192.878 205.794 193.131 205.564 192.386Z" fill="white"/>
<path d="M179.596 213.573C186.566 217.378 194.719 218.425 202.428 216.503C203.192 216.312 203.449 217.504 202.686 217.695C194.66 219.679 186.178 218.573 178.934 214.598C178.243 214.218 178.91 213.196 179.596 213.573Z" fill="white"/>
<path d="M240.535 185.707C240.67 187.232 241.183 188.701 242.028 189.98C242.873 191.259 244.023 192.31 245.376 193.036C246.071 193.407 245.403 194.428 244.713 194.06C243.223 193.251 241.954 192.089 241.017 190.678C240.08 189.267 239.505 187.648 239.34 185.964C239.312 185.806 239.344 185.644 239.431 185.509C239.518 185.375 239.653 185.278 239.809 185.24C239.967 185.206 240.132 185.237 240.268 185.324C240.404 185.412 240.5 185.549 240.535 185.707Z" fill="white"/>
<path d="M186.519 216.122C180.669 187.924 173.356 178.522 173.356 178.522L170.563 176.363L167.203 173.761L167.22 173.427L166.423 173.157L166.236 173.012L165.929 172.777L165.88 172.83L165.775 172.937L150.573 167.786L131.286 161.255L122.356 149.683C120.901 147.798 119.028 146.275 116.884 145.232C114.741 144.19 112.384 143.657 109.998 143.674L81.4757 143.885C77.6191 143.913 73.9127 145.379 71.0851 147.993L52.3377 165.329L23.1255 179.237L23.0762 179.188L22.7695 179.406L18.2559 181.558L18.4422 182.524L15.6486 184.534C15.6486 184.534 8.336 193.281 2.4859 219.519C0.997699 226.195 0.265153 240.517 0.000743047 258.164C-0.0125382 259.057 0.152343 259.943 0.485795 260.772C0.819247 261.601 1.31462 262.355 1.94311 262.991C2.5716 263.627 3.32066 264.132 4.14675 264.477C4.97284 264.822 5.85947 265 6.75509 265H162.783L182.257 265C183.152 265 184.038 264.822 184.864 264.478C185.689 264.133 186.438 263.629 187.066 262.993C187.695 262.358 188.19 261.605 188.524 260.777C188.858 259.949 189.024 259.063 189.011 258.171C188.753 238.968 188.021 223.362 186.519 216.122Z" fill="#FF1694"/>
<path d="M206.538 24.5908C200.468 24.5908 194.646 26.9948 190.354 31.2738C186.061 35.5529 183.65 41.3565 183.65 47.408C183.65 53.4595 186.061 59.2631 190.354 63.5421C194.646 67.8212 200.468 70.2251 206.538 70.2251H377.112C383.182 70.2251 389.004 67.8212 393.296 63.5421C397.589 59.2631 400 53.4595 400 47.408C400 41.3565 397.589 35.5529 393.296 31.2738C389.004 26.9948 383.182 24.5908 377.112 24.5908H206.538Z" fill="#FF1694"/>
<path d="M206.538 29.209C201.696 29.209 197.053 31.1264 193.629 34.5395C190.205 37.9525 188.282 42.5816 188.282 47.4084C188.282 52.2352 190.205 56.8643 193.629 60.2773C197.053 63.6903 201.696 65.6078 206.538 65.6078H377.111C381.953 65.6078 386.597 63.6903 390.02 60.2773C393.444 56.8643 395.368 52.2352 395.368 47.4084C395.368 42.5816 393.444 37.9525 390.02 34.5395C386.597 31.1264 381.953 29.209 377.111 29.209H206.538Z" fill="white"/>
<path d="M100.216 132.992C120.853 132.992 137.583 116.314 137.583 95.7412C137.583 75.1681 120.853 58.4902 100.216 58.4902C79.5786 58.4902 62.8486 75.1681 62.8486 95.7412C62.8486 116.314 79.5786 132.992 100.216 132.992Z" fill="#9E616A"/>
<path d="M90.6568 131.168C90.4971 130.818 90.338 130.466 90.1792 130.113C90.2404 130.115 90.301 130.124 90.3621 130.126L90.6568 131.168Z" fill="#2F2E41"/>
<path d="M61.8096 60.1843C63.6995 58.6814 65.9084 57.2985 68.3248 57.3762C70.7411 57.4538 73.1914 59.6294 72.6908 61.9873C77.1291 54.1533 84.1936 48.1281 92.6441 44.9692C101.095 41.8104 110.391 41.7197 118.902 44.7131C124.908 46.8253 130.797 51.051 132.177 57.2488C132.531 58.8398 132.607 60.5843 133.604 61.8763C134.86 63.5051 137.264 63.8736 139.243 63.3006C139.263 63.2949 139.283 63.2891 139.303 63.2832C139.637 63.1694 139.998 63.1582 140.339 63.2511C140.68 63.344 140.985 63.5367 141.214 63.8043C141.444 64.0719 141.588 64.4021 141.628 64.7521C141.667 65.1021 141.6 65.456 141.436 65.7678L139.737 68.927C141.879 69.403 144.104 69.3558 146.224 68.7895C146.576 68.6974 146.949 68.7162 147.289 68.8433C147.631 68.9704 147.924 69.1995 148.129 69.4993C148.334 69.799 148.441 70.1548 148.436 70.5176C148.43 70.8805 148.312 71.2328 148.097 71.5261C142.494 79.1949 133.133 84.147 123.581 84.0888C116.791 84.0476 109.932 81.7149 103.324 83.2714C100.768 83.8735 98.3793 85.0385 96.3336 86.6809C94.2879 88.3233 92.637 90.4015 91.5021 92.7629C90.3671 95.1243 89.7769 97.7091 89.7747 100.328C89.7725 102.946 90.3585 105.532 91.4895 107.895C89.4596 105.682 85.5355 106.206 83.4591 108.376C81.3827 110.546 80.8452 113.785 81.0544 116.777C81.3743 121.353 83.1727 125.664 85.0687 129.861C69.173 129.362 54.1384 118.246 49.0777 103.212C43.9958 88.1144 49.3218 70.1152 61.8096 60.1843Z" fill="#2F2E41"/>
<path opacity="0.2" d="M36.7793 207.608L47.26 264.454L53.5486 265L36.7793 207.608Z" fill="black"/>
<path opacity="0.2" d="M152.226 203.321L141.745 264.413L135.457 265L152.226 203.321Z" fill="black"/>
<path d="M70.7487 41.0528C68.7392 41.8893 66.6423 40.9725 65.7629 38.8731C64.8701 36.7416 65.704 34.5778 67.7457 33.7279C69.7876 32.878 71.8472 33.7969 72.7544 35.9628C73.648 38.0962 72.8232 40.1892 70.7487 41.0528ZM66.8993 29.5324L65.3015 30.1975C64.9023 30.3617 64.4559 30.3706 64.0505 30.2223C63.6451 30.0741 63.3103 29.7796 63.1123 29.3971L63.0333 29.243C61.3141 26.1521 61.1172 22.3955 62.4513 18.0836C63.6872 14.2155 64.2005 11.4952 63.1682 9.03063C61.9746 6.18118 59.426 5.28858 56.1758 6.58161C54.9153 7.10633 54.5142 7.09796 53.5222 8.07897C53.3064 8.29496 53.0492 8.46542 52.7659 8.58018C52.4826 8.69494 52.179 8.75165 51.8733 8.74694C51.5777 8.74347 51.2859 8.6807 51.0151 8.56237C50.7444 8.44404 50.5004 8.27257 50.2976 8.0582C49.9069 7.64507 49.688 7.09952 49.6851 6.53173C49.6822 5.96395 49.8956 5.41622 50.2821 4.99918C51.9495 3.2592 53.9605 1.88265 56.1884 0.956404C63.1715 -1.95042 66.6869 2.34109 68.2955 6.18159C69.869 9.93804 68.9839 13.4234 67.5617 17.9373C66.37 21.6881 66.4394 24.4673 67.7932 27.2308C67.8909 27.4397 67.9453 27.6661 67.953 27.8965C67.9608 28.1269 67.9218 28.3565 67.8383 28.5715C67.7548 28.7865 67.6286 28.9824 67.4672 29.1475C67.3059 29.3126 67.1127 29.4436 66.8993 29.5324Z" fill="#FF1694"/>
<path d="M244.216 58.29H210.278C210.17 58.2907 210.063 58.2702 209.964 58.2295C209.864 58.1889 209.773 58.129 209.696 58.0533C209.62 57.9775 209.559 57.8874 209.518 57.7882C209.476 57.689 209.455 57.5825 209.455 57.4751C209.455 57.3676 209.476 57.2612 209.518 57.1619C209.559 57.0627 209.62 56.9726 209.696 56.8969C209.773 56.8211 209.864 56.7612 209.964 56.7206C210.063 56.68 210.17 56.6594 210.278 56.6602H244.216C244.432 56.6616 244.638 56.7481 244.79 56.9008C244.942 57.0535 245.028 57.2599 245.028 57.4751C245.028 57.6902 244.942 57.8967 244.79 58.0493C244.638 58.202 244.432 58.2885 244.216 58.29Z" fill="#FFf"/>
<path d="M287.268 58.5624H253.33C253.222 58.5632 253.115 58.5426 253.015 58.502C252.916 58.4614 252.825 58.4015 252.748 58.3257C252.672 58.25 252.611 58.1599 252.57 58.0607C252.528 57.9614 252.507 57.855 252.507 57.7475C252.507 57.6401 252.528 57.5336 252.57 57.4344C252.611 57.3352 252.672 57.2451 252.748 57.1693C252.825 57.0936 252.916 57.0337 253.015 56.9931C253.115 56.9524 253.222 56.9319 253.33 56.9326H287.268C287.375 56.9319 287.482 56.9524 287.582 56.9931C287.682 57.0337 287.773 57.0936 287.849 57.1693C287.926 57.2451 287.986 57.3352 288.028 57.4344C288.069 57.5336 288.091 57.6401 288.091 57.7475C288.091 57.855 288.069 57.9614 288.028 58.0607C287.986 58.1599 287.926 58.25 287.849 58.3257C287.773 58.4015 287.682 58.4614 287.582 58.502C287.482 58.5426 287.375 58.5632 287.268 58.5624Z" fill="#FFf"/>
<path d="M330.32 58.8339H296.382C296.166 58.8325 295.96 58.7459 295.808 58.5933C295.656 58.4406 295.57 58.2342 295.57 58.019C295.57 57.8038 295.656 57.5974 295.808 57.4447C295.96 57.2921 296.166 57.2056 296.382 57.2041H330.32C330.428 57.2034 330.535 57.2239 330.634 57.2646C330.734 57.3052 330.825 57.3651 330.902 57.4408C330.978 57.5166 331.039 57.6067 331.08 57.7059C331.122 57.8051 331.143 57.9115 331.143 58.019C331.143 58.1265 331.122 58.2329 331.08 58.3322C331.039 58.4314 330.978 58.5215 330.902 58.5972C330.825 58.673 330.734 58.7329 330.634 58.7735C330.535 58.8141 330.428 58.8346 330.32 58.8339Z" fill="#FFf"/>
<path d="M373.372 59.1054H339.434C339.218 59.1039 339.012 59.0174 338.86 58.8647C338.707 58.7121 338.622 58.5056 338.622 58.2905C338.622 58.0753 338.707 57.8689 338.86 57.7162C339.012 57.5635 339.218 57.477 339.434 57.4756H373.372C373.588 57.477 373.794 57.5635 373.946 57.7162C374.098 57.8689 374.184 58.0753 374.184 58.2905C374.184 58.5056 374.098 58.7121 373.946 58.8647C373.794 59.0174 373.588 59.1039 373.372 59.1054Z" fill="#FFf"/>
<path d="M227.172 50.7907C230.656 50.7907 233.48 47.9755 233.48 44.5028C233.48 41.0301 230.656 38.2148 227.172 38.2148C223.689 38.2148 220.865 41.0301 220.865 44.5028C220.865 47.9755 223.689 50.7907 227.172 50.7907Z" fill="#FFf"/>
<path d="M270.484 50.7907C273.968 50.7907 276.792 47.9755 276.792 44.5028C276.792 41.0301 273.968 38.2148 270.484 38.2148C267.001 38.2148 264.177 41.0301 264.177 44.5028C264.177 47.9755 267.001 50.7907 270.484 50.7907Z" fill="#FFf"/>
<path d="M313.796 50.7907C317.28 50.7907 320.104 47.9755 320.104 44.5028C320.104 41.0301 317.28 38.2148 313.796 38.2148C310.313 38.2148 307.489 41.0301 307.489 44.5028C307.489 47.9755 310.313 50.7907 313.796 50.7907Z" fill="#FFF"/>
<path d="M357.108 50.7907C360.592 50.7907 363.416 47.9755 363.416 44.5028C363.416 41.0301 360.592 38.2148 357.108 38.2148C353.625 38.2148 350.801 41.0301 350.801 44.5028C350.801 47.9755 353.625 50.7907 357.108 50.7907Z" fill="#FFF"/>
</g>
<defs>
<clipPath id="clip0_77_484">
<rect width="400" height="265" fill="white"/>
</clipPath>
</defs>
</svg>
