<svg width="400" height="265" viewBox="0 0 400 265" fill="none" xmlns="http://www.w3.org/2000/svg">
<g clip-path="url(#clip0_1057_3180)">
<path d="M143.48 152.51C157.188 128.471 183.337 110.013 211.017 111.791C190.599 133.926 178.693 162.546 177.405 192.589C176.951 204.177 177.656 217.113 169.938 225.79C165.135 231.189 157.795 233.804 150.577 234.352C143.36 234.901 136.144 233.601 129.023 232.306L127.295 232.835C126.638 205.191 129.772 176.549 143.48 152.51Z" fill="white"/>
<path d="M211.058 112.37C190.589 122.193 173.135 138.599 162.421 158.607C160.104 162.933 158.132 167.522 157.272 172.374C156.411 177.228 157.012 181.849 158.676 186.459C160.196 190.674 162.241 194.81 162.707 199.32C163.199 204.074 161.444 208.519 158.286 212.047C154.421 216.363 149.232 219.038 144.066 221.477C138.33 224.186 132.329 226.909 128.266 231.965C127.774 232.578 126.849 231.78 127.34 231.169C134.409 222.373 146.508 220.719 154.899 213.633C158.814 210.327 161.753 205.825 161.568 200.549C161.405 195.935 159.3 191.669 157.724 187.414C156.068 182.947 155.243 178.455 155.837 173.692C156.444 168.82 158.24 164.145 160.435 159.779C165.386 149.933 172.162 140.894 179.924 133.08C188.844 124.098 199.24 116.704 210.662 111.216C211.369 110.877 211.761 112.033 211.058 112.37Z" fill="#FF1694"/>
<path d="M165.559 151.92C162.421 149.633 160.201 146.308 159.295 142.54C158.389 138.771 158.857 134.804 160.614 131.347C160.972 130.649 162.077 131.171 161.719 131.87C160.076 135.086 159.641 138.781 160.492 142.289C161.343 145.796 163.423 148.885 166.358 150.998C166.995 151.458 166.193 152.377 165.559 151.92Z" fill="#FF1694"/>
<path d="M157.622 184.424C165.485 183.279 172.626 179.221 177.622 173.06C178.116 172.449 179.041 173.246 178.547 173.856C173.337 180.258 165.897 184.465 157.712 185.639C156.932 185.751 156.846 184.535 157.622 184.424Z" fill="white"/>
<path d="M189.448 125.598C190.477 126.735 191.774 127.6 193.221 128.114C194.668 128.629 196.221 128.777 197.74 128.545C198.518 128.424 198.603 129.64 197.829 129.76C196.15 130.008 194.435 129.843 192.835 129.278C191.235 128.713 189.798 127.767 188.649 126.521C188.531 126.412 188.459 126.263 188.447 126.103C188.435 125.944 188.485 125.786 188.586 125.661C188.692 125.539 188.843 125.465 189.004 125.453C189.166 125.441 189.325 125.493 189.448 125.598Z" fill="#FF1694"/>
<path d="M266.092 187.625C265.608 187.715 265.124 187.804 264.636 187.903C258.137 189.139 251.748 190.899 245.535 193.167C245.052 193.334 244.564 193.512 244.087 193.693C229.175 199.314 215.44 207.647 203.58 218.267C198.864 222.497 194.479 227.079 190.46 231.972C184.911 238.731 179.434 246.499 172.183 250.906C171.432 251.374 170.652 251.795 169.848 252.168L128.076 234.895C128.001 234.808 127.921 234.731 127.846 234.644L126.146 234.03C126.336 233.763 126.538 233.491 126.728 233.224C126.837 233.069 126.956 232.917 127.065 232.762C127.141 232.66 127.217 232.558 127.28 232.461C127.305 232.427 127.33 232.393 127.352 232.368C127.414 232.272 127.482 232.189 127.541 232.101C128.668 230.574 129.808 229.052 130.96 227.535C130.964 227.526 130.964 227.526 130.977 227.52C139.787 215.986 149.64 205.083 160.84 196.017C161.177 195.745 161.518 195.462 161.874 195.198C166.945 191.139 172.341 187.501 178.006 184.319C181.114 182.586 184.308 181.012 187.576 179.602C196.026 175.973 204.997 173.693 214.158 172.843C232.421 171.153 251.023 175.303 265.031 186.741C265.389 187.034 265.738 187.323 266.092 187.625Z" fill="white"/>
<path d="M265.778 188.115C243.502 183.673 219.658 186.296 199.019 195.841C194.557 197.904 190.211 200.385 186.594 203.743C182.975 207.102 180.664 211.152 179.207 215.832C177.876 220.11 177.011 224.639 174.659 228.52C172.18 232.611 168.095 235.107 163.443 236.028C157.751 237.155 151.992 236.176 146.393 235.023C140.177 233.743 133.741 232.315 127.444 233.914C126.681 234.107 126.424 232.916 127.186 232.722C138.142 229.942 148.801 235.883 159.78 235.262C164.903 234.972 169.969 233.141 173.007 228.817C175.664 225.036 176.56 220.366 177.871 216.023C179.247 211.462 181.301 207.38 184.651 203.934C188.079 200.408 192.337 197.753 196.726 195.585C206.626 190.695 217.495 187.545 228.412 185.964C240.959 184.147 253.725 184.482 266.159 186.957C266.928 187.11 266.543 188.267 265.778 188.115Z" fill="#FF1694"/>
<path d="M205.564 192.386C204.44 188.676 204.675 184.689 206.228 181.136C207.78 177.583 210.549 174.697 214.04 172.991C214.747 172.648 215.315 173.728 214.606 174.071C211.353 175.654 208.774 178.343 207.335 181.654C205.896 184.965 205.691 188.68 206.759 192.129C206.99 192.878 205.793 193.131 205.564 192.386Z" fill="#FF1694"/>
<path d="M179.596 213.574C186.566 217.379 194.718 218.425 202.428 216.504C203.191 216.313 203.448 217.504 202.686 217.695C194.659 219.679 186.178 218.573 178.933 214.598C178.243 214.219 178.909 213.197 179.596 213.574Z" fill="white"/>
<path d="M240.535 185.706C240.67 187.232 241.183 188.7 242.028 189.98C242.873 191.259 244.023 192.309 245.376 193.036C246.071 193.406 245.403 194.428 244.713 194.06C243.223 193.25 241.954 192.089 241.017 190.678C240.08 189.266 239.505 187.648 239.34 185.963C239.312 185.806 239.344 185.643 239.431 185.509C239.518 185.374 239.653 185.278 239.809 185.239C239.967 185.206 240.132 185.236 240.268 185.324C240.404 185.411 240.5 185.549 240.535 185.706Z" fill="#FF1694"/>
<path d="M186.519 216.121C180.669 187.923 173.356 178.522 173.356 178.522L170.563 176.362L167.203 173.761L167.22 173.426L166.423 173.156L166.236 173.011L165.929 172.777L165.88 172.829L165.775 172.937L150.573 167.786L131.286 161.255L122.356 149.682C120.901 147.798 119.028 146.274 116.884 145.232C114.741 144.19 112.384 143.656 109.998 143.674L81.4757 143.884C77.6191 143.913 73.9127 145.378 71.0851 147.993L52.3377 165.328L23.1255 179.236L23.0762 179.187L22.7695 179.406L18.2559 181.557L18.4422 182.524L15.6486 184.533C15.6486 184.533 8.336 193.281 2.4859 219.519C0.997699 226.195 0.265153 240.516 0.000743047 258.164C-0.0125382 259.056 0.152343 259.943 0.485795 260.772C0.819247 261.6 1.31462 262.355 1.94311 262.991C2.5716 263.627 3.32066 264.132 4.14675 264.477C4.97284 264.822 5.85947 264.999 6.75509 265H162.783L182.257 265C183.152 264.999 184.038 264.822 184.864 264.477C185.689 264.133 186.438 263.628 187.066 262.993C187.695 262.357 188.19 261.604 188.524 260.776C188.858 259.948 189.024 259.063 189.011 258.171C188.753 238.967 188.021 223.361 186.519 216.121Z" fill="white"/>
<path d="M206.538 24.5908C200.468 24.5908 194.646 26.9948 190.354 31.2738C186.061 35.5529 183.65 41.3565 183.65 47.408C183.65 53.4595 186.061 59.2631 190.354 63.5421C194.646 67.8212 200.468 70.2251 206.538 70.2251H377.112C383.182 70.2251 389.004 67.8212 393.296 63.5421C397.589 59.2631 400 53.4595 400 47.408C400 41.3565 397.589 35.5529 393.296 31.2738C389.004 26.9948 383.182 24.5908 377.112 24.5908H206.538Z" fill="white"/>
<path d="M206.538 29.209C201.696 29.209 197.053 31.1264 193.629 34.5395C190.205 37.9525 188.282 42.5816 188.282 47.4084C188.282 52.2352 190.205 56.8643 193.629 60.2773C197.053 63.6904 201.696 65.6078 206.538 65.6078H377.112C381.953 65.6078 386.597 63.6904 390.021 60.2773C393.444 56.8643 395.368 52.2352 395.368 47.4084C395.368 42.5816 393.444 37.9525 390.021 34.5395C386.597 31.1264 381.953 29.209 377.112 29.209H206.538Z" fill="#FF1694"/>
<path d="M100.216 132.992C120.854 132.992 137.584 116.314 137.584 95.7412C137.584 75.1681 120.854 58.4902 100.216 58.4902C79.5788 58.4902 62.8489 75.1681 62.8489 95.7412C62.8489 116.314 79.5788 132.992 100.216 132.992Z" fill="#9E616A"/>
<path d="M90.6568 131.168C90.4971 130.818 90.338 130.466 90.1792 130.113C90.2404 130.115 90.301 130.124 90.3621 130.126L90.6568 131.168Z" fill="#2F2E41"/>
<path d="M61.8097 60.1843C63.6997 58.6814 65.9085 57.2985 68.3249 57.3762C70.7412 57.4538 73.1915 59.6294 72.6909 61.9873C77.1292 54.1533 84.1937 48.1281 92.6443 44.9692C101.095 41.8104 110.392 41.7197 118.903 44.7131C124.908 46.8253 130.798 51.051 132.177 57.2488C132.531 58.8398 132.607 60.5843 133.604 61.8763C134.86 63.5051 137.264 63.8736 139.243 63.3006C139.263 63.2949 139.283 63.2891 139.303 63.2832C139.637 63.1694 139.998 63.1582 140.339 63.2511C140.68 63.344 140.985 63.5367 141.215 63.8043C141.444 64.0719 141.588 64.4021 141.628 64.7521C141.667 65.1021 141.601 65.456 141.436 65.7678L139.737 68.927C141.879 69.403 144.105 69.3558 146.224 68.7895C146.577 68.6974 146.949 68.7162 147.29 68.8433C147.631 68.9704 147.924 69.1995 148.129 69.4993C148.334 69.799 148.441 70.1548 148.436 70.5176C148.43 70.8805 148.312 71.2328 148.098 71.5261C142.494 79.1949 133.133 84.147 123.581 84.0888C116.791 84.0476 109.932 81.7149 103.324 83.2714C100.768 83.8735 98.3794 85.0385 96.3337 86.6809C94.288 88.3233 92.6371 90.4015 91.5022 92.7629C90.3672 95.1243 89.777 97.7091 89.7748 100.328C89.7727 102.946 90.3586 105.532 91.4896 107.895C89.4597 105.682 85.5357 106.206 83.4592 108.376C81.3828 110.546 80.8453 113.785 81.0545 116.777C81.3744 121.353 83.1729 125.664 85.0688 129.861C69.1732 129.362 54.1385 118.246 49.0778 103.212C43.9959 88.1144 49.3219 70.1152 61.8097 60.1843Z" fill="#2F2E41"/>
<path opacity="0.2" d="M36.7791 207.608L47.2597 264.454L53.5484 265L36.7791 207.608Z" fill="#FF1694"/>
<path opacity="0.2" d="M152.226 203.321L141.745 264.413L135.457 265L152.226 203.321Z" fill="#FF1694"/>
<path d="M70.7488 41.0528C68.7393 41.8893 66.6424 40.9725 65.7631 38.8731C64.8702 36.7416 65.7041 34.5778 67.7458 33.7279C69.7878 32.878 71.8473 33.7969 72.7545 35.9628C73.6481 38.0962 72.8233 40.1892 70.7488 41.0528ZM66.8994 29.5324L65.3016 30.1975C64.9025 30.3617 64.456 30.3706 64.0506 30.2223C63.6452 30.0741 63.3104 29.7796 63.1124 29.3971L63.0334 29.243C61.3142 26.1521 61.1173 22.3955 62.4514 18.0836C63.6873 14.2155 64.2006 11.4952 63.1683 9.03063C61.9747 6.18118 59.4261 5.28858 56.176 6.58161C54.9154 7.10633 54.5143 7.09796 53.5223 8.07897C53.3065 8.29496 53.0493 8.46542 52.766 8.58018C52.4827 8.69494 52.1791 8.75165 51.8734 8.74694C51.5778 8.74347 51.286 8.6807 51.0153 8.56237C50.7446 8.44404 50.5005 8.27257 50.2977 8.0582C49.907 7.64507 49.6881 7.09952 49.6852 6.53173C49.6823 5.96395 49.8957 5.41622 50.2822 4.99918C51.9496 3.2592 53.9607 1.88265 56.1885 0.956404C63.1716 -1.95042 66.687 2.34109 68.2957 6.18159C69.8691 9.93804 68.984 13.4234 67.5619 17.9373C66.3701 21.6881 66.4395 24.4673 67.7933 27.2308C67.891 27.4397 67.9454 27.6661 67.9532 27.8965C67.9609 28.1269 67.9219 28.3565 67.8384 28.5715C67.7549 28.7865 67.6287 28.9824 67.4673 29.1475C67.306 29.3126 67.1128 29.4436 66.8994 29.5324Z" fill="white"/>
<path d="M244.216 58.2905H210.278C210.17 58.2912 210.063 58.2707 209.963 58.23C209.864 58.1894 209.773 58.1295 209.696 58.0538C209.62 57.978 209.559 57.8879 209.518 57.7887C209.476 57.6895 209.455 57.583 209.455 57.4756C209.455 57.3681 209.476 57.2617 209.518 57.1624C209.559 57.0632 209.62 56.9731 209.696 56.8974C209.773 56.8216 209.864 56.7617 209.963 56.7211C210.063 56.6805 210.17 56.6599 210.278 56.6607H244.216C244.431 56.6621 244.638 56.7486 244.79 56.9013C244.942 57.0539 245.028 57.2604 245.028 57.4756C245.028 57.6907 244.942 57.8972 244.79 58.0498C244.638 58.2025 244.431 58.289 244.216 58.2905Z" fill="white"/>
<path d="M287.268 58.5619H253.33C253.222 58.5627 253.115 58.5421 253.015 58.5015C252.916 58.4609 252.825 58.401 252.748 58.3252C252.672 58.2495 252.611 58.1594 252.57 58.0602C252.528 57.961 252.507 57.8545 252.507 57.7471C252.507 57.6396 252.528 57.5331 252.57 57.4339C252.611 57.3347 252.672 57.2446 252.748 57.1689C252.825 57.0931 252.916 57.0332 253.015 56.9926C253.115 56.952 253.222 56.9314 253.33 56.9321H287.268C287.375 56.9314 287.482 56.952 287.582 56.9926C287.682 57.0332 287.773 57.0931 287.849 57.1689C287.926 57.2446 287.986 57.3347 288.028 57.4339C288.069 57.5331 288.091 57.6396 288.091 57.7471C288.091 57.8545 288.069 57.961 288.028 58.0602C287.986 58.1594 287.926 58.2495 287.849 58.3252C287.773 58.401 287.682 58.4609 287.582 58.5015C287.482 58.5421 287.375 58.5627 287.268 58.5619Z" fill="white"/>
<path d="M330.32 58.8334H296.382C296.166 58.832 295.96 58.7455 295.808 58.5928C295.655 58.4401 295.57 58.2337 295.57 58.0185C295.57 57.8034 295.655 57.5969 295.808 57.4443C295.96 57.2916 296.166 57.2051 296.382 57.2036H330.32C330.428 57.2029 330.534 57.2234 330.634 57.2641C330.734 57.3047 330.825 57.3646 330.901 57.4403C330.978 57.5161 331.039 57.6062 331.08 57.7054C331.121 57.8046 331.143 57.911 331.143 58.0185C331.143 58.126 331.121 58.2324 331.08 58.3317C331.039 58.4309 330.978 58.521 330.901 58.5967C330.825 58.6725 330.734 58.7324 330.634 58.773C330.534 58.8136 330.428 58.8342 330.32 58.8334Z" fill="white"/>
<path d="M373.372 59.1054H339.434C339.218 59.1039 339.012 59.0174 338.86 58.8647C338.708 58.7121 338.622 58.5056 338.622 58.2905C338.622 58.0753 338.708 57.8689 338.86 57.7162C339.012 57.5635 339.218 57.477 339.434 57.4756H373.372C373.588 57.477 373.794 57.5635 373.946 57.7162C374.099 57.8689 374.184 58.0753 374.184 58.2905C374.184 58.5056 374.099 58.7121 373.946 58.8647C373.794 59.0174 373.588 59.1039 373.372 59.1054Z" fill="white"/>
<path d="M227.172 50.7907C230.656 50.7907 233.48 47.9755 233.48 44.5028C233.48 41.0301 230.656 38.2148 227.172 38.2148C223.689 38.2148 220.865 41.0301 220.865 44.5028C220.865 47.9755 223.689 50.7907 227.172 50.7907Z" fill="white"/>
<path d="M270.484 50.7907C273.968 50.7907 276.792 47.9755 276.792 44.5028C276.792 41.0301 273.968 38.2148 270.484 38.2148C267.001 38.2148 264.177 41.0301 264.177 44.5028C264.177 47.9755 267.001 50.7907 270.484 50.7907Z" fill="white"/>
<path d="M313.796 50.7907C317.28 50.7907 320.104 47.9755 320.104 44.5028C320.104 41.0301 317.28 38.2148 313.796 38.2148C310.313 38.2148 307.489 41.0301 307.489 44.5028C307.489 47.9755 310.313 50.7907 313.796 50.7907Z" fill="white"/>
<path d="M357.108 50.5759C360.592 50.5759 363.416 47.7607 363.416 44.2879C363.416 40.8152 360.592 38 357.108 38C353.625 38 350.801 40.8152 350.801 44.2879C350.801 47.7607 353.625 50.5759 357.108 50.5759Z" fill="white"/>
</g>
<defs>
<clipPath id="clip0_1057_3180">
<rect width="400" height="265" fill="white"/>
</clipPath>
</defs>
</svg>
